<svg xmlns="http://www.w3.org/2000/svg" viewBox="0 0 680 520" role="img">
<title>CoinStock 동전 로고</title>
<desc>500원 동전을 본뜬 은색 동전 로고. 상단 테두리를 따라 2026, 중앙에 큰 글씨로 Coin, 하단 테두리를 따라 CoinStock이 새겨져 있다.</desc>
<defs>
<linearGradient id="sheen" x1="0" y1="0" x2="1" y2="1">
<stop offset="0" stop-color="#FFFFFF" stop-opacity="0.32"/>
<stop offset="0.5" stop-color="#FFFFFF" stop-opacity="0"/>
<stop offset="1" stop-color="#000000" stop-opacity="0.10"/>
</linearGradient>
<path id="topArc" d="M229.15 299.64 A118 118 0 0 1 450.85 299.64" fill="none"/>
<path id="bottomArc" d="M237.81 399 A118 118 0 0 0 442.19 399" fill="none"/>
</defs>

<circle cx="340" cy="340" r="150" fill="#C7CBD0" stroke="#8E939B" stroke-width="3"/>
<circle cx="340" cy="340" r="150" fill="url(#sheen)"/>
<circle cx="340" cy="340" r="154" fill="none" stroke="#767C85" stroke-width="3" stroke-dasharray="1.6,3.4"/>

<circle cx="340" cy="340" r="128" fill="#D2D5D9" stroke="#A4A9B0" stroke-width="1.2"/>

<g fill="#8E939B">
<circle cx="477.0" cy="340.0" r="3.2"/><circle cx="475.0" cy="363.8" r="3.2"/><circle cx="468.8" cy="386.9" r="3.2"/>
<circle cx="458.6" cy="408.5" r="3.2"/><circle cx="445.0" cy="428.1" r="3.2"/><circle cx="428.1" cy="445.0" r="3.2"/>
<circle cx="408.5" cy="458.6" r="3.2"/><circle cx="386.9" cy="468.8" r="3.2"/><circle cx="363.8" cy="475.0" r="3.2"/>
<circle cx="340.0" cy="477.0" r="3.2"/><circle cx="316.2" cy="475.0" r="3.2"/><circle cx="293.1" cy="468.8" r="3.2"/>
<circle cx="271.5" cy="458.6" r="3.2"/><circle cx="251.9" cy="445.0" r="3.2"/><circle cx="235.0" cy="428.1" r="3.2"/>
<circle cx="221.4" cy="408.5" r="3.2"/><circle cx="211.2" cy="386.9" r="3.2"/><circle cx="205.0" cy="363.8" r="3.2"/>
<circle cx="203.0" cy="340.0" r="3.2"/><circle cx="205.0" cy="316.2" r="3.2"/><circle cx="211.2" cy="293.1" r="3.2"/>
<circle cx="221.4" cy="271.5" r="3.2"/><circle cx="235.0" cy="251.9" r="3.2"/><circle cx="251.9" cy="235.0" r="3.2"/>
<circle cx="271.5" cy="221.4" r="3.2"/><circle cx="293.1" cy="211.2" r="3.2"/><circle cx="316.2" cy="205.0" r="3.2"/>
<circle cx="340.0" cy="203.0" r="3.2"/><circle cx="363.8" cy="205.0" r="3.2"/><circle cx="386.9" cy="211.2" r="3.2"/>
<circle cx="408.5" cy="221.4" r="3.2"/><circle cx="428.1" cy="235.0" r="3.2"/><circle cx="445.0" cy="251.9" r="3.2"/>
<circle cx="458.6" cy="271.5" r="3.2"/><circle cx="468.8" cy="293.1" r="3.2"/><circle cx="475.0" cy="316.2" r="3.2"/>
</g>

<text font-size="26" font-weight="500" fill="#5B6168" letter-spacing="5">
<textPath href="#topArc" startOffset="50%" text-anchor="middle">2026</textPath>
</text>

<text x="340" y="372" font-size="78" font-weight="500" fill="#454A50" text-anchor="middle">Coin</text>

<text font-size="19" font-weight="500" fill="#5B6168" letter-spacing="2.5">
<textPath href="#bottomArc" startOffset="50%" text-anchor="middle">CoinStock</textPath>
</text>
</svg>
